<svg width="42" height="43" viewBox="0 0 42 43" fill="none" xmlns="http://www.w3.org/2000/svg">
<g id="Icon/Outline/adjustments">
<path id="Icon" d="M10.5 21.5002L7 21.5002M10.5 21.5002C10.5 23.4792 12.067 25.0835 14 25.0835C15.933 25.0835 17.5 23.4792 17.5 21.5002M10.5 21.5002C10.5 19.5211 12.067 17.9168 14 17.9168C15.933 17.9168 17.5 19.5211 17.5 21.5002M31.5 32.2502C31.5 30.2711 29.933 28.6668 28 28.6668C26.067 28.6668 24.5 30.2711 24.5 32.2502M31.5 32.2502C31.5 34.2292 29.933 35.8335 28 35.8335C26.067 35.8335 24.5 34.2292 24.5 32.2502M31.5 32.2502L35 32.2502M24.5 32.2502L7 32.2502M17.5 21.5002L35 21.5002M31.5 10.7502C31.5 8.77114 29.933 7.16683 28 7.16683C26.067 7.16683 24.5 8.77114 24.5 10.7502M31.5 10.7502C31.5 12.7292 29.933 14.3335 28 14.3335C26.067 14.3335 24.5 12.7292 24.5 10.7502M31.5 10.7502L35 10.7502M24.5 10.7502L7 10.7502" stroke="white" stroke-width="2" stroke-linecap="round" stroke-linejoin="round"/>
</g>
</svg>
