<svg width="22" height="22" viewBox="0 0 22 22" fill="none" xmlns="http://www.w3.org/2000/svg">
<path d="M21.4999 0.516673C21.3457 0.362167 21.1625 0.239588 20.9609 0.155952C20.7593 0.0723165 20.5432 0.0292662 20.3249 0.0292662C20.1066 0.0292662 19.8905 0.0723165 19.6888 0.155952C19.4872 0.239588 19.3041 0.362167 19.1499 0.516673L10.9999 8.65001L2.84988 0.500006C2.69558 0.345703 2.5124 0.223303 2.31079 0.139795C2.10918 0.0562864 1.8931 0.0133057 1.67488 0.0133057C1.45667 0.0133057 1.24059 0.0562864 1.03898 0.139795C0.837372 0.223303 0.654187 0.345703 0.499884 0.500006C0.345581 0.654309 0.223181 0.837494 0.139673 1.0391C0.0561643 1.24071 0.0131836 1.45679 0.0131836 1.67501C0.0131836 1.89322 0.0561643 2.10931 0.139673 2.31091C0.223181 2.51252 0.345581 2.6957 0.499884 2.85001L8.64988 11L0.499884 19.15C0.345581 19.3043 0.223181 19.4875 0.139673 19.6891C0.0561643 19.8907 0.0131836 20.1068 0.0131836 20.325C0.0131836 20.5432 0.0561643 20.7593 0.139673 20.9609C0.223181 21.1625 0.345581 21.3457 0.499884 21.5C0.654187 21.6543 0.837372 21.7767 1.03898 21.8602C1.24059 21.9437 1.45667 21.9867 1.67488 21.9867C1.8931 21.9867 2.10918 21.9437 2.31079 21.8602C2.5124 21.7767 2.69558 21.6543 2.84988 21.5L10.9999 13.35L19.1499 21.5C19.3042 21.6543 19.4874 21.7767 19.689 21.8602C19.8906 21.9437 20.1067 21.9867 20.3249 21.9867C20.5431 21.9867 20.7592 21.9437 20.9608 21.8602C21.1624 21.7767 21.3456 21.6543 21.4999 21.5C21.6542 21.3457 21.7766 21.1625 21.8601 20.9609C21.9436 20.7593 21.9866 20.5432 21.9866 20.325C21.9866 20.1068 21.9436 19.8907 21.8601 19.6891C21.7766 19.4875 21.6542 19.3043 21.4999 19.15L13.3499 11L21.4999 2.85001C22.1332 2.21667 22.1332 1.15001 21.4999 0.516673Z" fill="#FFC72C"/>
</svg>
